<svg width="111" height="32" viewBox="0 0 111 32" fill="none" xmlns="http://www.w3.org/2000/svg">
<path d="M51.3463 10.436V23H48.8263V14.828L45.4603 23H43.5523L40.1683 14.828V23H37.6483V10.436H40.5103L44.5063 19.778L48.5023 10.436H51.3463ZM63.3777 13.028L57.2037 27.716H54.5217L56.6817 22.748L52.6857 13.028H55.5117L58.0857 19.994L60.6957 13.028H63.3777Z" fill="white"/>
<path d="M71.8641 16.556C72.5721 16.688 73.1541 17.042 73.6101 17.618C74.0661 18.194 74.2941 18.854 74.2941 19.598C74.2941 20.27 74.1261 20.864 73.7901 21.38C73.4661 21.884 72.9921 22.28 72.3681 22.568C71.7441 22.856 71.0061 23 70.1541 23H64.7361V10.436H69.9201C70.7721 10.436 71.5041 10.574 72.1161 10.85C72.7401 11.126 73.2081 11.51 73.5201 12.002C73.8441 12.494 74.0061 13.052 74.0061 13.676C74.0061 14.408 73.8081 15.02 73.4121 15.512C73.0281 16.004 72.5121 16.352 71.8641 16.556ZM67.2561 15.62H69.5601C70.1601 15.62 70.6221 15.488 70.9461 15.224C71.2701 14.948 71.4321 14.558 71.4321 14.054C71.4321 13.55 71.2701 13.16 70.9461 12.884C70.6221 12.608 70.1601 12.47 69.5601 12.47H67.2561V15.62ZM69.7941 20.948C70.4061 20.948 70.8801 20.804 71.2161 20.516C71.5641 20.228 71.7381 19.82 71.7381 19.292C71.7381 18.752 71.5581 18.332 71.1981 18.032C70.8381 17.72 70.3521 17.564 69.7401 17.564H67.2561V20.948H69.7941ZM75.6545 17.978C75.6545 16.97 75.8525 16.076 76.2485 15.296C76.6565 14.516 77.2025 13.916 77.8865 13.496C78.5825 13.076 79.3565 12.866 80.2085 12.866C80.9525 12.866 81.6005 13.016 82.1525 13.316C82.7165 13.616 83.1665 13.994 83.5025 14.45V13.028H86.0405V23H83.5025V21.542C83.1785 22.01 82.7285 22.4 82.1525 22.712C81.5885 23.012 80.9345 23.162 80.1905 23.162C79.3505 23.162 78.5825 22.946 77.8865 22.514C77.2025 22.082 76.6565 21.476 76.2485 20.696C75.8525 19.904 75.6545 18.998 75.6545 17.978ZM83.5025 18.014C83.5025 17.402 83.3825 16.88 83.1425 16.448C82.9025 16.004 82.5785 15.668 82.1705 15.44C81.7625 15.2 81.3245 15.08 80.8565 15.08C80.3885 15.08 79.9565 15.194 79.5605 15.422C79.1645 15.65 78.8405 15.986 78.5885 16.43C78.3485 16.862 78.2285 17.378 78.2285 17.978C78.2285 18.578 78.3485 19.106 78.5885 19.562C78.8405 20.006 79.1645 20.348 79.5605 20.588C79.9685 20.828 80.4005 20.948 80.8565 20.948C81.3245 20.948 81.7625 20.834 82.1705 20.606C82.5785 20.366 82.9025 20.03 83.1425 19.598C83.3825 19.154 83.5025 18.626 83.5025 18.014ZM94.0278 12.884C95.2158 12.884 96.1758 13.262 96.9078 14.018C97.6398 14.762 98.0058 15.806 98.0058 17.15V23H95.4858V17.492C95.4858 16.7 95.2878 16.094 94.8918 15.674C94.4958 15.242 93.9558 15.026 93.2718 15.026C92.5758 15.026 92.0238 15.242 91.6158 15.674C91.2198 16.094 91.0218 16.7 91.0218 17.492V23H88.5018V13.028H91.0218V14.27C91.3578 13.838 91.7838 13.502 92.2998 13.262C92.8278 13.01 93.4038 12.884 94.0278 12.884ZM106.306 23L102.922 18.752V23H100.402V9.68H102.922V17.258L106.27 13.028H109.546L105.154 18.032L109.582 23H106.306Z" fill="#5CE1E6"/>
<path d="M16.4062 0C13.2417 -3.77363e-08 10.1483 0.938383 7.51713 2.69649C4.88594 4.45459 2.83518 6.95345 1.62418 9.87706C0.413176 12.8007 0.096322 16.0177 0.713685 19.1214C1.33105 22.2251 2.8549 25.0761 5.09254 27.3137C7.33018 29.5513 10.1811 31.0752 13.2848 31.6926C16.3885 32.3099 19.6056 31.9931 22.5292 30.7821C25.4528 29.5711 27.9517 27.5203 29.7098 24.8891C31.4679 22.2579 32.4062 19.1645 32.4062 16L24.4062 16C24.4062 17.5823 23.9371 19.129 23.058 20.4446C22.179 21.7602 20.9295 22.7855 19.4677 23.391C18.0059 23.9965 16.3974 24.155 14.8455 23.8463C13.2937 23.5376 11.8682 22.7757 10.7494 21.6569C9.63057 20.538 8.86865 19.1126 8.55997 17.5607C8.25129 16.0089 8.40971 14.4003 9.01521 12.9385C9.62072 11.4767 10.6461 10.2273 11.9617 9.34824C13.2773 8.46919 14.824 8 16.4062 8V0Z" fill="white"/>
<path d="M16.4062 0C14.3051 -2.5056e-08 12.2245 0.413852 10.2833 1.21793C8.3421 2.022 6.57828 3.20055 5.09254 4.68629C3.6068 6.17203 2.42825 7.93586 1.62418 9.87707C0.820102 11.8183 0.40625 13.8989 0.40625 16H8.40625C8.40625 14.9494 8.61318 13.9091 9.01521 12.9385C9.41725 11.9679 10.0065 11.086 10.7494 10.3431C11.4923 9.60028 12.3742 9.011 13.3448 8.60896C14.3154 8.20693 15.3557 8 16.4062 8V0Z" fill="#5CE1E6"/>
<circle cx="16.4062" cy="16" r="5" fill="#5CE1E6"/>
<path d="M21.4062 16C21.4062 15.3434 21.2769 14.6932 21.0256 14.0866C20.7744 13.48 20.4061 12.9288 19.9418 12.4645C19.4775 12.0002 18.9263 11.6319 18.3197 11.3806C17.713 11.1293 17.0629 11 16.4062 11C15.7496 11 15.0995 11.1293 14.4928 11.3806C13.8862 11.6319 13.335 12.0002 12.8707 12.4645C12.4064 12.9288 12.0381 13.48 11.7869 14.0866C11.5356 14.6932 11.4062 15.3434 11.4063 16L16.4062 16H21.4062Z" fill="white"/>
</svg>
